# xmcd
# 
# Track frame offsets:
#     150
#     10803
#     27883
#     42187
#     57148
#     70967
#     83673
#     94207
#     111993
#     126069
#     139401
#     149542
#     163895
#     187717
#     205345
#     216241
#     231126
#     241445
#     253159
#     268094
# 
# Disc length: 3781
# 
# Revision: 2
# Processed by: cddbd v1.5.2PL0 Copyright (c) Steve Scherf et al.
# Submitted via: fre:ac v1.0.31
# 
DISCID=280ec314
DTITLE=Various Artist - The Tour Collection Disc 1: Love
DYEAR=2008
DGENRE=Folk/Country
TTITLE0=Dolly Parton - Love Is Like a Butterfly
TTITLE1=Dolly Parton - Cowgirl and the Dandy
TTITLE2=Dolly Parton - Love, You're So Beautiful Tonight
TTITLE3=Dolly Parton - But You Know I Love
TTITLE4=Dolly Parton - Most of All Why
TTITLE5=Dolly Parton - Falling Out of Love with Me
TTITLE6=Dolly Parton - Bubbling Over
TTITLE7=Dolly Parton - Yellow Roses
TTITLE8=Dolly Parton - Fool for Your Love
TTITLE9=Dolly Parton - I Will Always Love You
TTITLE10=Dolly Parton - Because I Love You
TTITLE11=Dolly Parton - Sweet Music Man
TTITLE12=Dolly Parton - You Are
TTITLE13=Dolly Parton with Kenny Rogers - Real Love
TTITLE14=Dolly Parton - Lovin' You
TTITLE15=Dolly Parton - I'll Make Your Bed
TTITLE16=Dolly Parton - Love with Me
TTITLE17=Dolly Parton - Hold Me
TTITLE18=Dolly Parton - Sweet Summer Lovin'
TTITLE19=Dolly Parton - Tie Our Love (in a Double Knot)
EXTD=YEAR: 2008
EXTT0=
EXTT1=
EXTT2=
EXTT3=
EXTT4=
EXTT5=
EXTT6=
EXTT7=
EXTT8=
EXTT9=
EXTT10=
EXTT11=
EXTT12=
EXTT13=
EXTT14=
EXTT15=
EXTT16=
EXTT17=
EXTT18=
EXTT19=
PLAYORDER=
